<?xml version="1.0" encoding="utf-8"?>
<svg xmlns="http://www.w3.org/2000/svg" style="margin: auto; display: block; shape-rendering: auto;" width="280" height="250" preserveAspectRatio="xMidYMid">
<style type="text/css">
  text {
    text-anchor: middle; font-size: 80px; opacity: 0;
  }
</style>
<g style="transform-origin:140px 125px;transform:scale(1)">
<g transform="translate(140,125)">
  <g transform="translate(0,0)"><g class="path" style="transform: matrix(1, 0, 0, 1, 0, 0); transform-origin: -70.24px 8.70613px; animation: 1s linear -0.44s infinite normal forwards running bounce-3a019655-beef-47a0-a14e-f61451f554ea;"><path d="M46.48-44.24L46.48-44.24L46.48-44.24Q40.16-46.96 32.76-46.96L32.76-46.96L32.76-46.96Q25.36-46.96 20.76-42.24L20.76-42.24L20.76-42.24Q16.16-37.52 16.16-29.92L16.16-29.92L14.40-29.92L14.40-29.92Q14.40-38.24 19.52-43.48L19.52-43.48L19.52-43.48Q24.64-48.72 32.64-48.72L32.64-48.72L32.64-48.72Q39.04-48.72 46.48-46.24L46.48-46.24L46.48-46.24Q55.04-43.12 65.04-43.12L65.04-43.12L65.04-41.44L65.04-41.44Q59.04-41.44 55.44-42L55.44-42L55.44-42Q55.36-41.68 54.88-39.36L54.88-39.36L54.88-39.36Q51.92-26.24 50.08-18.48L50.08-18.48L71.52-18.48L79.68-53.20L81.36-53.20L70.16-5.12L70.16-5.12Q69.44-2.16 69.44-1.12L69.44-1.12L69.44-1.12Q69.44 2.24 72.56 2.24L72.56 2.24L72.56 2.24Q74.80 2.24 76.48-0.08L76.48-0.08L77.60 0.88L77.60 0.88Q77.04 1.92 75.60 2.84L75.60 2.84L75.60 2.84Q74.16 3.76 72.12 3.76L72.12 3.76L72.12 3.76Q70.08 3.76 68.92 2.40L68.92 2.40L68.92 2.40Q67.76 1.04 67.76-0.88L67.76-0.88L68.72-6.16L71.20-17.04L49.68-17.04L49.68-17.04Q48.80-13.68 47.92-9.76L47.92-9.76L47.92-9.76Q47.04-5.84 45.80-2.08L45.80-2.08L45.80-2.08Q44.56 1.68 42.40 5.68L42.40 5.68L42.40 5.68Q40.24 9.68 37.56 12.20L37.56 12.20L37.56 12.20Q34.88 14.72 30.84 16.36L30.84 16.36L30.84 16.36Q26.80 18 22.12 18L22.12 18L22.12 18Q17.44 18 13.28 16.24L13.28 16.24L13.28 16.24Q9.12 14.48 6.32 11.36L6.32 11.36L6.32 11.36Q1.52 5.84 1.52-2L1.52-2L1.52-2Q1.52-3.28 1.60-4.56L1.60-4.56L3.36-4.32L3.36-4.32Q3.28-3.20 3.28-2.08L3.28-2.08L3.28-2.08Q3.28 5.36 7.80 10.36L7.80 10.36L7.80 10.36Q12.32 15.36 20 15.36L20 15.36L20 15.36Q27.68 15.36 30.80 11.28L30.80 11.28L30.80 11.28Q33.92 7.20 36.76-4.40L36.76-4.40L36.76-4.40Q39.60-16 46.48-44.24" fill="#51cacc" stroke="none" stroke-width="none" transform="translate(-111.67998695373535,26.306133371988924)" style="fill: rgb(81, 202, 204);"></path></g><g class="path" style="transform: matrix(1, 0, 0, 1, 0, 0); transform-origin: 18.36px 7.34614px; animation: 1s linear -0.22s infinite normal forwards running bounce-3a019655-beef-47a0-a14e-f61451f554ea;"><path d="M121.20 15.52L121.20 15.52L121.20 15.52Q129.60 15.52 134.28 12.08L134.28 12.08L134.28 12.08Q138.96 8.64 138.96 2.96L138.96 2.96L138.96 2.96Q138.96-1.12 136.92-4.24L136.92-4.24L136.92-4.24Q134.88-7.36 131.84-9.40L131.84-9.40L131.84-9.40Q128.80-11.44 125.64-13.44L125.64-13.44L125.64-13.44Q122.48-15.44 119.76-18.48L119.76-18.48L119.76-18.48Q117.04-21.52 116.16-25.36L116.16-25.36L116.16-25.36Q108.88-27.52 106.56-34.40L106.56-34.40L106.56-34.40Q105.68-37.04 105.68-39.92L105.68-39.92L105.68-39.92Q105.68-42.80 106.56-45.92L106.56-45.92L106.56-45.92Q108.40-52.08 112.56-55.20L112.56-55.20L113.44-53.92L113.44-53.92Q109.68-51.20 108.00-45.44L108.00-45.44L108.00-45.44Q107.20-42.56 107.20-39.92L107.20-39.92L107.20-39.92Q107.20-37.28 108.00-34.88L108.00-34.88L108.00-34.88Q109.92-29.04 115.92-27.04L115.92-27.04L115.92-27.04Q115.76-27.92 115.76-29.76L115.76-29.76L115.76-29.76Q115.76-40.24 123.36-46.72L123.36-46.72L123.36-46.72Q130.96-53.20 141.92-53.20L141.92-53.20L141.92-53.20Q149.12-53.20 153.44-49.28L153.44-49.28L153.44-49.28Q157.12-45.84 157.12-40.84L157.12-40.84L157.12-40.84Q157.12-35.84 153.76-32.20L153.76-32.20L153.76-32.20Q150.40-28.56 144.72-28.56L144.72-28.56L144.72-28.56Q141.60-28.56 139.60-29.76L139.60-29.76L139.60-29.76Q135.52-26.64 129.92-25.28L129.92-25.28L129.92-25.28Q131.52-23.76 137.40-19.68L137.40-19.68L137.40-19.68Q143.28-15.60 146.20-11.88L146.20-11.88L146.20-11.88Q149.12-8.16 149.12-3.20L149.12-3.20L149.12-3.20Q149.12 5.92 142.04 11.60L142.04 11.60L142.04 11.60Q134.96 17.28 124.12 17.28L124.12 17.28L124.12 17.28Q113.28 17.28 107.76 12.48L107.76 12.48L107.76 12.48Q102.96 8.40 102.96 2.52L102.96 2.52L102.96 2.52Q102.96-3.36 106.76-7.56L106.76-7.56L106.76-7.56Q110.56-11.76 116.24-11.76L116.24-11.76L116.24-11.76Q121.92-11.76 124.64-9.24L124.64-9.24L124.64-9.24Q127.36-6.72 127.36-3.12L127.36-3.12L127.36-3.12Q127.36 0.48 125.16 3.28L125.16 3.28L125.16 3.28Q122.96 6.08 119.44 6.08L119.44 6.08L119.44 6.08Q115.92 6.08 113.84 3.84L113.84 3.84L113.84 3.84Q111.92 1.92 111.68-0.96L111.68-0.96L111.68-0.96Q111.60-1.76 111.68-1.92L111.68-1.92L113.20-1.84L113.20-1.84Q113.12 0.96 114.96 2.80L114.96 2.80L114.96 2.80Q116.48 4.48 119.40 4.48L119.40 4.48L119.40 4.48Q122.32 4.48 124.08 2.20L124.08 2.20L124.08 2.20Q125.84-0.08 125.84-3.08L125.84-3.08L125.84-3.08Q125.84-6.08 123.76-7.92L123.76-7.92L123.76-7.92Q121.44-10.24 116.32-10.24L116.32-10.24L116.32-10.24Q111.20-10.24 107.84-6.52L107.84-6.52L107.84-6.52Q104.48-2.80 104.48 2.44L104.48 2.44L104.48 2.44Q104.48 7.68 108.80 11.36L108.80 11.36L108.80 11.36Q111.36 13.60 114.04 14.56L114.04 14.56L114.04 14.56Q116.72 15.52 121.20 15.52zM134.80-39.52L134.80-39.52L134.80-39.52Q134.80-43.04 136.60-45.36L136.60-45.36L136.60-45.36Q138.40-47.68 141.52-47.68L141.52-47.68L141.52-47.68Q146.88-47.68 146.88-41.80L146.88-41.80L146.88-41.80Q146.88-35.92 141.04-30.72L141.04-30.72L141.04-30.72Q142.80-29.92 144.72-29.92L144.72-29.92L144.72-29.92Q149.68-29.92 152.64-33.16L152.64-33.16L152.64-33.16Q155.60-36.40 155.60-40.76L155.60-40.76L155.60-40.76Q155.60-45.12 152.40-48.16L152.40-48.16L152.40-48.16Q148.48-51.68 142.08-51.68L142.08-51.68L142.08-51.68Q135.68-51.68 131.20-48.56L131.20-48.56L131.20-48.56Q124.24-43.60 124.24-35.76L124.24-35.76L124.24-35.76Q124.24-29.28 128.56-26.32L128.56-26.32L128.56-26.32Q133.92-27.52 138.48-30.64L138.48-30.64L138.48-30.64Q134.80-33.92 134.80-39.52zM141.44-46.24L141.44-46.24L141.44-46.24Q139.04-46.24 137.72-44.40L137.72-44.40L137.72-44.40Q136.40-42.56 136.40-39.52L136.40-39.52L136.40-39.52Q136.40-34.32 139.68-31.60L139.68-31.60L139.68-31.60Q142.08-33.28 143.68-36.16L143.68-36.16L143.68-36.16Q145.28-39.04 145.28-41.84L145.28-41.84L145.28-41.84Q145.28-46.24 141.44-46.24" fill="#51cacc" stroke="none" stroke-width="none" transform="translate(-111.67998695373535,26.306133371988924)" style="fill: rgb(157, 248, 113);"></path></g><g class="path" style="transform: matrix(1, 0, 0, 1, 0, 0); transform-origin: 89.6px 5.34613px; animation: 1s linear 0s infinite normal forwards running bounce-3a019655-beef-47a0-a14e-f61451f554ea;"><path d="M187.12-10.88L187.12-10.88L187.12-10.88Q187.12 1.12 194.88 4.96L194.88 4.96L194.88 4.96Q196.80 5.20 199.96 5.20L199.96 5.20L199.96 5.20Q203.12 5.20 206.64 4L206.64 4L206.64 4Q210.16 2.80 212.08 1.04L212.08 1.04L212.08 1.04Q216.16-2.72 217.20-5.44L217.20-5.44L217.60-6.64L219.20-6L219.20-6Q218.64-4.16 217.04-1.76L217.04-1.76L217.04-1.76Q215.44 0.64 213.40 2.32L213.40 2.32L213.40 2.32Q211.36 4 207.48 5.40L207.48 5.40L207.48 5.40Q203.60 6.80 198.88 6.80L198.88 6.80L198.88 6.80Q188.80 6.80 183.24 0.96L183.24 0.96L183.24 0.96Q177.68-4.88 177.68-15.52L177.68-15.52L177.68-15.52Q177.68-30 187.04-39.36L187.04-39.36L187.04-39.36Q196.40-48.72 211.60-48.72L211.60-48.72L211.60-48.72Q218.64-48.72 221.76-46.20L221.76-46.20L221.76-46.20Q224.88-43.68 224.88-38.32L224.88-38.32L224.88-38.32Q224.88-34.72 221.36-29.44L221.36-29.44L221.36-29.44Q218.16-24.32 218.16-21.44L218.16-21.44L216.40-21.44L216.40-21.44Q216.40-23.04 217.04-24.88L217.04-24.88L217.04-24.88Q217.68-26.72 218.16-27.52L218.16-27.52L218.16-27.52Q218.64-28.32 219.92-30.40L219.92-30.40L219.92-30.40Q223.04-35.12 223.04-38.16L223.04-38.16L223.04-38.16Q223.04-44.56 217.76-46.24L217.76-46.24L217.76-46.24Q215.28-47.04 212.56-47.04L212.56-47.04L212.56-47.04Q209.84-47.04 206.80-46.72L206.80-46.72L206.80-46.72Q204-45.84 201.48-44.44L201.48-44.44L201.48-44.44Q198.96-43.04 196.24-40.20L196.24-40.20L196.24-40.20Q193.52-37.36 191.60-33.60L191.60-33.60L191.60-33.60Q189.68-29.84 188.40-23.96L188.40-23.96L188.40-23.96Q187.12-18.08 187.12-10.88" fill="#51cacc" stroke="none" stroke-width="none" transform="translate(-111.67998695373535,26.306133371988924)" style="fill: rgb(224, 255, 119);"></path></g></g>
</g>
</g>
<style id="bounce-3a019655-beef-47a0-a14e-f61451f554ea" data-anikit="">@keyframes bounce-3a019655-beef-47a0-a14e-f61451f554ea
{
  0% {
    animation-timing-function: cubic-bezier(0.1361,0.2514,0.2175,0.8786);
    transform: translate(0,0px) scaleY(1);
  }
  37% {
    animation-timing-function: cubic-bezier(0.7674,0.1844,0.8382,0.7157);
    transform: translate(0,-39.96px) scaleY(1);
  }
  72% {
    animation-timing-function: cubic-bezier(0.1118,0.2149,0.2172,0.941);
    transform: translate(0,0px) scaleY(1);
  }
  87% {
    animation-timing-function: cubic-bezier(0.7494,0.2259,0.8209,0.6963);
    transform: translate(0,19.900000000000002px) scaleY(0.602);
  }
  100% {
    transform: translate(0,0px) scaleY(1);
  }
}</style></svg>